<svg width="51" height="51" viewBox="0 0 51 51" fill="none" xmlns="http://www.w3.org/2000/svg">
<circle cx="25.5" cy="25.5" r="25.5" fill="#FBE8CC"/>
<path d="M18.2792 23.1333C17.2988 23.38 16.4422 23.9762 15.8704 24.8099C15.2986 25.6436 15.0509 26.6574 15.1739 27.6609C15.2968 28.6643 15.782 29.5883 16.5382 30.2593C17.2944 30.9303 18.2696 31.302 19.2805 31.3047H20.3171M25.5 36.4876V27.1584V36.4876ZM25.5 36.4876L22.9086 34.4145L25.5 36.4876ZM25.5 36.4876L28.0915 34.4145L25.5 36.4876Z" stroke="#7B4E0A" stroke-width="1.7622" stroke-linecap="round" stroke-linejoin="round"/>
<path d="M29.4701 21.0819C29.1158 19.679 28.2413 18.4632 27.0239 17.6811C25.8065 16.899 24.3372 16.6091 22.914 16.8702C21.4907 17.1312 20.22 17.9236 19.3593 19.0868C18.4987 20.25 18.1125 21.697 18.2792 23.1343C18.2792 23.1343 18.4377 24.0486 18.7622 24.5669" stroke="#7B4E0A" stroke-width="1.7622" stroke-linecap="round" stroke-linejoin="round"/>
<path d="M30.6828 31.3046C31.4146 31.3041 32.1381 31.1486 32.8056 30.8483C33.473 30.5481 34.0693 30.1099 34.5552 29.5626C35.0411 29.0153 35.4055 28.3712 35.6246 27.6729C35.8436 26.9746 35.9123 26.2378 35.8261 25.511C35.7399 24.7843 35.5007 24.084 35.1243 23.4563C34.748 22.8286 34.2429 22.2878 33.6425 21.8694C33.042 21.4509 32.3597 21.1644 31.6406 21.0287C30.9214 20.8929 30.1816 20.911 29.47 21.0818L28.0913 21.457" stroke="#7B4E0A" stroke-width="1.7622" stroke-linecap="round" stroke-linejoin="round"/>
</svg>
