<svg width="51" height="51" viewBox="0 0 51 51" fill="none" xmlns="http://www.w3.org/2000/svg">
<circle cx="25.5" cy="25.5" r="25.5" fill="#818CF8"/>
<path d="M25.6922 24.6695C27.8489 24.6695 29.5263 22.9123 29.5263 20.7556C29.5263 18.599 27.769 16.9216 25.6124 16.9216C23.4557 16.9216 21.7783 18.6788 21.7783 20.7556C21.7783 22.9123 23.5356 24.6695 25.6922 24.6695ZM25.6124 18.5191C25.6922 18.5191 25.6922 18.5191 25.6124 18.5191C26.8904 18.5191 27.9288 19.5575 27.9288 20.8355C27.9288 22.1135 26.8904 23.072 25.6124 23.072C24.3343 23.072 23.3758 22.0336 23.3758 20.8355C23.3758 19.5575 24.4142 18.5191 25.6124 18.5191Z" fill="#EEF2FF"/>
<path d="M37.5132 24.1902C35.9955 22.8323 33.9986 22.1135 31.9219 22.1933H31.2828C31.1231 22.8323 30.8835 23.3915 30.564 23.8707C31.0432 23.7908 31.4426 23.7908 31.9219 23.7908C33.4395 23.711 34.9571 24.1902 36.1553 25.0689V30.8199H37.7528V24.4299L37.5132 24.1902Z" fill="#EEF2FF"/>
<path d="M30.0851 17.0815C30.4844 16.123 31.6027 15.6438 32.6411 16.0432C33.5996 16.4425 34.0789 17.5608 33.6795 18.5992C33.36 19.3181 32.6411 19.7973 31.9222 19.7973C31.7625 19.7973 31.5228 19.7973 31.3631 19.7174C31.4429 20.1168 31.4429 20.5162 31.4429 20.8357V21.315C31.6027 21.315 31.7625 21.3948 31.9222 21.3948C33.9191 21.3948 35.5166 19.7973 35.5166 17.8803C35.5166 15.8834 33.9191 14.2859 32.0021 14.2859C30.7241 14.2859 29.6058 14.9249 28.9668 16.0432C29.3662 16.2828 29.7656 16.6023 30.0851 17.0815Z" fill="#EEF2FF"/>
<path d="M20.9798 23.9507C20.6603 23.4715 20.4207 22.9124 20.261 22.2734H19.622C17.5452 22.1935 15.5483 22.9124 14.0306 24.1904L13.791 24.43V30.8201H15.3885V25.069C16.6665 24.1904 18.1043 23.7111 19.622 23.791C20.1012 23.791 20.5805 23.8709 20.9798 23.9507Z" fill="#EEF2FF"/>
<path d="M19.6223 21.3149C19.782 21.3149 19.9418 21.3149 20.1015 21.2351V20.7558C20.1015 20.3564 20.1015 19.9571 20.1814 19.6375C20.0217 19.7174 19.782 19.7174 19.6223 19.7174C18.5839 19.7174 17.7053 18.8388 17.7053 17.8004C17.7053 16.762 18.5839 15.8834 19.6223 15.8834C20.421 15.8834 21.1399 16.3626 21.4594 17.0815C21.7789 16.6821 22.2582 16.2828 22.6576 15.9633C21.6192 14.2859 19.4625 13.7267 17.7851 14.7651C16.1077 15.8035 15.5486 17.9602 16.587 19.6375C17.226 20.6759 18.3443 21.3149 19.6223 21.3149Z" fill="#EEF2FF"/>
<path d="M32.2414 28.9829L32.0816 28.7433C30.4841 26.986 28.2476 25.9476 25.8513 26.0275C23.455 25.9476 21.1386 26.986 19.5411 28.7433L19.3813 28.9829V35.0535C19.3813 35.7724 19.9405 36.4114 20.7392 36.4114H30.9634C31.6822 36.4114 32.3212 35.7724 32.3212 35.0535V28.9829H32.2414ZM30.6438 34.8139H20.9789V29.5421C22.2569 28.264 24.0141 27.625 25.8513 27.625C27.6086 27.5452 29.3658 28.264 30.6438 29.5421V34.8139Z" fill="#EEF2FF"/>
</svg>
