<svg width="33" height="33" viewBox="0 0 33 33" fill="none" xmlns="http://www.w3.org/2000/svg">
<path d="M21.7602 16.3489C21.7602 17.7039 21.2219 19.0034 20.2638 19.9616C19.3057 20.9197 18.0062 21.458 16.6512 21.458C15.2962 21.458 13.9967 20.9197 13.0385 19.9616C12.0804 19.0034 11.5421 17.7039 11.5421 16.3489C11.5421 16.0577 11.5728 15.7733 11.6256 15.4974H9.83912V22.3044C9.83912 22.7778 10.2223 23.161 10.6957 23.161H22.6083C22.8352 23.1605 23.0527 23.0701 23.2129 22.9095C23.3732 22.7489 23.4632 22.5313 23.4632 22.3044V15.4974H21.6768C21.7296 15.7733 21.7602 16.0577 21.7602 16.3489ZM16.6512 19.755C17.0986 19.7548 17.5416 19.6666 17.9549 19.4953C18.3682 19.324 18.7437 19.0729 19.06 18.7565C19.3762 18.4401 19.6271 18.0644 19.7982 17.651C19.9693 17.2377 20.0573 16.7946 20.0572 16.3472C20.0571 15.8998 19.9689 15.4568 19.7975 15.0435C19.6262 14.6302 19.3752 14.2547 19.0588 13.9385C18.7423 13.6222 18.3667 13.3713 17.9533 13.2002C17.5399 13.0291 17.0969 12.9411 16.6495 12.9412C15.7459 12.9414 14.8795 13.3006 14.2407 13.9397C13.6019 14.5787 13.2432 15.4454 13.2434 16.3489C13.2437 17.2525 13.6028 18.119 14.2419 18.7577C14.881 19.3965 15.7476 19.7552 16.6512 19.755ZM20.7384 12.7726H22.7803C22.916 12.7726 23.0461 12.7188 23.1422 12.6231C23.2383 12.5273 23.2925 12.3974 23.2929 12.2617V10.2198C23.2929 10.0838 23.2389 9.95345 23.1428 9.85732C23.0467 9.76118 22.9163 9.70718 22.7803 9.70718H20.7384C20.6025 9.70718 20.4721 9.76118 20.3759 9.85732C20.2798 9.95345 20.2258 10.0838 20.2258 10.2198V12.2617C20.2275 12.5427 20.4574 12.7726 20.7384 12.7726ZM16.6512 0C12.3152 0 8.15676 1.72247 5.09074 4.78849C2.02472 7.85451 0.302246 12.0129 0.302246 16.3489C0.302246 20.6849 2.02472 24.8434 5.09074 27.9094C8.15676 30.9754 12.3152 32.6979 16.6512 32.6979C18.7982 32.6979 20.9241 32.275 22.9076 31.4534C24.8912 30.6318 26.6935 29.4275 28.2116 27.9094C29.7298 26.3912 30.934 24.5889 31.7556 22.6054C32.5772 20.6219 33.0001 18.4959 33.0001 16.3489C33.0001 14.202 32.5772 12.076 31.7556 10.0925C30.934 8.10892 29.7298 6.30663 28.2116 4.78849C26.6935 3.27035 24.8912 2.0661 22.9076 1.24449C20.9241 0.422878 18.7982 0 16.6512 0ZM25.1662 22.972C25.1662 24.0125 24.3147 24.864 23.2742 24.864H10.0282C8.98762 24.864 8.13611 24.0125 8.13611 22.972V9.72591C8.13611 8.68537 8.98762 7.83386 10.0282 7.83386H23.2742C24.3147 7.83386 25.1662 8.68537 25.1662 9.72591V22.972Z" fill="#6366F1"/>
</svg>
