<svg width="51" height="51" viewBox="0 0 51 51" fill="none" xmlns="http://www.w3.org/2000/svg">
<circle cx="25.5" cy="25.5" r="25.5" fill="#E3CCFB"/>
<g clip-path="url(#clip0_93_813)">
<path d="M21.3613 17.3993C19.8804 17.8074 18.4096 18.2512 16.9501 18.7302C16.8168 18.7734 16.6984 18.8531 16.6082 18.9603C16.518 19.0676 16.4598 19.1979 16.4401 19.3366C15.5787 25.8003 17.5689 30.5162 19.9432 33.6229C20.9485 34.9513 22.1471 36.1217 23.4992 37.0949C24.0372 37.4743 24.513 37.7479 24.8877 37.9236C25.0743 38.0123 25.2267 38.0714 25.3433 38.1071C25.3943 38.125 25.4469 38.138 25.5004 38.146C25.5532 38.1374 25.6052 38.1244 25.6559 38.1071C25.774 38.0714 25.9264 38.0123 26.113 37.9236C26.4862 37.7479 26.9635 37.4727 27.5015 37.0949C28.8536 36.1217 30.0522 34.9513 31.0575 33.6229C33.4318 30.5178 35.422 25.8003 34.5606 19.3366C34.5411 19.1979 34.483 19.0674 34.3928 18.9602C34.3026 18.8529 34.184 18.7732 34.0506 18.7302C33.0384 18.399 31.3296 17.8595 29.6395 17.4008C27.9135 16.9328 26.326 16.5861 25.5004 16.5861C24.6763 16.5861 23.0872 16.9328 21.3613 17.4008V17.3993ZM20.9477 15.7977C22.6347 15.339 24.4275 14.927 25.5004 14.927C26.5732 14.927 28.366 15.339 30.053 15.7977C31.779 16.2642 33.5189 16.8162 34.542 17.1505C34.9697 17.2917 35.349 17.5508 35.6361 17.8979C35.9233 18.245 36.1067 18.6661 36.1653 19.1127C37.092 26.0739 34.9416 31.233 32.3325 34.646C31.2261 36.106 29.9069 37.3917 28.4189 38.4601C27.9043 38.8298 27.3592 39.1549 26.7894 39.4319C26.354 39.6371 25.886 39.805 25.5004 39.805C25.1148 39.805 24.6483 39.6371 24.2114 39.4319C23.6415 39.1549 23.0964 38.8298 22.5819 38.4601C21.0939 37.3916 19.7747 36.1059 18.6682 34.646C16.0591 31.233 13.9087 26.0739 14.8355 19.1127C14.8941 18.6661 15.0775 18.245 15.3646 17.8979C15.6518 17.5508 16.031 17.2917 16.4587 17.1505C17.944 16.6635 19.4407 16.2125 20.9477 15.7977Z" fill="#7812E3"/>
<path d="M27.8326 25.0337C27.8329 25.5163 27.6834 25.987 27.405 26.381C27.1265 26.7751 26.7326 27.073 26.2777 27.2339L26.8764 30.3281C26.8981 30.4406 26.8948 30.5566 26.8665 30.6677C26.8382 30.7788 26.7857 30.8822 26.7127 30.9706C26.6398 31.059 26.5481 31.1302 26.4444 31.1791C26.3408 31.2279 26.2275 31.2533 26.1129 31.2532H24.8877C24.7732 31.253 24.6601 31.2275 24.5566 31.1786C24.4531 31.1296 24.3617 31.0584 24.2889 30.97C24.2161 30.8816 24.1638 30.7783 24.1356 30.6673C24.1074 30.5563 24.104 30.4405 24.1258 30.3281L24.7228 27.2339C24.3198 27.0914 23.9636 26.8408 23.6933 26.5096C23.423 26.1783 23.2489 25.7792 23.1901 25.3557C23.1313 24.9322 23.1901 24.5007 23.3599 24.1084C23.5298 23.716 23.8042 23.3779 24.1532 23.131C24.5022 22.884 24.9124 22.7378 25.3389 22.7082C25.7654 22.6786 26.1919 22.7669 26.5716 22.9633C26.9514 23.1597 27.2699 23.4566 27.4923 23.8218C27.7146 24.1869 27.8324 24.6062 27.8326 25.0337Z" fill="#7812E3"/>
</g>
<defs>
<clipPath id="clip0_93_813">
<rect width="24.878" height="24.878" fill="white" transform="translate(13.061 14.9268)"/>
</clipPath>
</defs>
</svg>
