<svg width="34" height="33" viewBox="0 0 34 33" fill="none" xmlns="http://www.w3.org/2000/svg">
<path d="M17.2171 0C8.18869 0 0.868164 7.32053 0.868164 16.3489C0.868164 25.3773 8.18869 32.6979 17.2171 32.6979C26.2455 32.6979 33.566 25.3773 33.566 16.3489C33.566 7.32053 26.2455 0 17.2171 0ZM25.0741 12.3237C25.085 12.4953 25.085 12.6741 25.085 12.8492C25.085 18.2064 21.0051 24.3774 13.5495 24.3774C11.2505 24.3774 9.11927 23.7096 7.3238 22.5601C7.65224 22.5966 7.96608 22.6112 8.30182 22.6112C10.1995 22.6112 11.9438 21.9689 13.3342 20.8814C11.5534 20.8449 10.0571 19.6771 9.54624 18.0714C10.1703 18.1626 10.7323 18.1626 11.3745 17.9984C10.4576 17.8121 9.63336 17.3141 9.04196 16.589C8.45056 15.8639 8.12843 14.9564 8.1303 14.0207V13.9696C8.66675 14.2725 9.29808 14.4586 9.95861 14.4841C9.40334 14.1141 8.94796 13.6127 8.63285 13.0245C8.31775 12.4363 8.15265 11.7795 8.1522 11.1122C8.1522 10.3568 8.34926 9.66704 8.70324 9.06855C9.72105 10.3215 10.9911 11.3462 12.4309 12.0762C13.8707 12.8061 15.4479 13.2249 17.0602 13.3054C16.4872 10.5502 18.5454 8.32044 21.0197 8.32044C22.1875 8.32044 23.2385 8.80945 23.9793 9.5977C24.8953 9.42618 25.7711 9.08315 26.552 8.62333C26.2492 9.56121 25.6142 10.3531 24.7712 10.8531C25.5886 10.7655 26.3769 10.5392 27.1067 10.2217C26.5557 11.0319 25.866 11.7508 25.0741 12.3237Z" fill="#6366F1"/>
</svg>
