<svg width="80" height="23" viewBox="0 0 80 23" fill="none" xmlns="http://www.w3.org/2000/svg">
<path d="M43.3022 15.6477H40.386L36.5684 8.71507H36.5153C36.5242 8.90065 36.533 9.1039 36.5419 9.32483C36.5595 9.53691 36.5728 9.75784 36.5816 9.9876C36.5905 10.2085 36.5993 10.4295 36.6081 10.6504C36.617 10.8625 36.6258 11.0701 36.6346 11.2734V15.6477H34.6198V6.18327H37.5228L41.3271 13.0364H41.3669C41.358 12.8508 41.3492 12.6564 41.3404 12.4531C41.3315 12.241 41.3227 12.029 41.3138 11.8169C41.305 11.5959 41.2962 11.3838 41.2873 11.1806C41.2873 10.9685 41.2829 10.7653 41.2741 10.5708V6.18327H43.3022V15.6477ZM48.5148 8.23787C49.2041 8.23787 49.7962 8.36601 50.291 8.62228C50.7947 8.86972 51.1792 9.24087 51.4443 9.73575C51.7182 10.2218 51.8552 10.8271 51.8552 11.5518V12.5857H47.2555C47.2732 13.0629 47.4278 13.4429 47.7195 13.7257C48.0111 14.0084 48.4264 14.1498 48.9655 14.1498C49.4338 14.1498 49.858 14.1056 50.238 14.0173C50.618 13.9289 51.0113 13.7875 51.4178 13.5931V15.25C51.0643 15.4356 50.6843 15.5682 50.2778 15.6477C49.8713 15.7361 49.372 15.7803 48.7799 15.7803C48.0464 15.7803 47.3925 15.6477 46.8181 15.3826C46.2525 15.1175 45.8063 14.711 45.4793 14.1631C45.1612 13.6064 45.0021 12.9038 45.0021 12.0555C45.0021 11.1894 45.1479 10.4781 45.4395 9.92132C45.7311 9.35576 46.1421 8.936 46.6723 8.66205C47.2025 8.37927 47.8167 8.23787 48.5148 8.23787ZM48.5546 9.78877C48.2099 9.78877 47.9227 9.89923 47.693 10.1202C47.472 10.3322 47.3395 10.6725 47.2953 11.1408H49.8006C49.8006 10.8846 49.752 10.6548 49.6548 10.4515C49.5664 10.2483 49.4294 10.0892 49.2439 9.97435C49.0583 9.85063 48.8285 9.78877 48.5546 9.78877ZM58.5961 13.4473C58.5961 13.9245 58.4857 14.3398 58.2647 14.6933C58.0527 15.038 57.7168 15.3075 57.2573 15.5019C56.7978 15.6875 56.2146 15.7803 55.5076 15.7803C54.9951 15.7803 54.5444 15.7493 54.1555 15.6875C53.7755 15.6256 53.3911 15.5151 53.0023 15.3561V13.5533C53.4265 13.7389 53.8683 13.8847 54.3279 13.9908C54.7962 14.0968 55.185 14.1498 55.4943 14.1498C55.8301 14.1498 56.0732 14.1056 56.2234 14.0173C56.3736 13.9289 56.4487 13.8052 56.4487 13.6461C56.4487 13.5312 56.409 13.4296 56.3294 13.3412C56.2587 13.2529 56.1085 13.1513 55.8788 13.0364C55.6578 12.9215 55.3264 12.7757 54.8846 12.5989C54.4516 12.4134 54.0937 12.2234 53.8109 12.029C53.5369 11.8345 53.3293 11.6004 53.1879 11.3264C53.0553 11.0525 52.9891 10.7167 52.9891 10.319C52.9891 9.6297 53.2542 9.11274 53.7844 8.76809C54.3234 8.41461 55.0348 8.23787 55.9185 8.23787C56.3869 8.23787 56.8287 8.28648 57.2441 8.38368C57.6594 8.48089 58.088 8.63112 58.5299 8.83437L57.8936 10.3455C57.655 10.2395 57.4164 10.1467 57.1778 10.0671C56.948 9.9876 56.7271 9.92574 56.515 9.88156C56.3029 9.83737 56.1041 9.81528 55.9185 9.81528C55.6711 9.81528 55.4811 9.85063 55.3485 9.92132C55.216 9.98318 55.1497 10.0804 55.1497 10.2129C55.1497 10.3102 55.185 10.4029 55.2557 10.4913C55.3353 10.5708 55.4811 10.6592 55.6932 10.7564C55.9141 10.8536 56.2322 10.9906 56.6476 11.1673C57.0629 11.3352 57.4164 11.512 57.708 11.6976C57.9996 11.8831 58.2206 12.1129 58.3708 12.3868C58.521 12.6608 58.5961 13.0143 58.5961 13.4473ZM63.3663 14.004C63.596 14.004 63.8081 13.9819 64.0025 13.9377C64.1969 13.8936 64.3958 13.8361 64.599 13.7654V15.4091C64.3604 15.5151 64.0865 15.6035 63.7772 15.6742C63.4679 15.7449 63.1011 15.7803 62.677 15.7803C62.2263 15.7803 61.8242 15.7096 61.4707 15.5682C61.1261 15.4179 60.8521 15.1661 60.6489 14.8126C60.4545 14.4503 60.3573 13.951 60.3573 13.3147V10.0406H59.4294V9.11274L60.5428 8.39694L61.1526 6.8593H62.5842V8.37043H64.5195V10.0406H62.5842V13.2352C62.5842 13.4915 62.6549 13.6859 62.7963 13.8184C62.9377 13.9422 63.1277 14.004 63.3663 14.004ZM72.755 11.9892C72.755 12.5989 72.671 13.138 72.5031 13.6064C72.3441 14.0747 72.1055 14.4724 71.7873 14.7994C71.478 15.1263 71.1025 15.3738 70.6606 15.5417C70.2276 15.7007 69.7283 15.7803 69.1627 15.7803C68.6502 15.7803 68.173 15.7007 67.7311 15.5417C67.2981 15.3738 66.9226 15.1307 66.6044 14.8126C66.2951 14.4856 66.0521 14.088 65.8754 13.6196C65.6986 13.1424 65.6103 12.5989 65.6103 11.9892C65.6103 11.185 65.7517 10.5046 66.0344 9.94783C66.3261 9.3911 66.7414 8.96693 67.2805 8.67531C67.8195 8.38368 68.4602 8.23787 69.2025 8.23787C69.9006 8.23787 70.5148 8.38368 71.045 8.67531C71.5752 8.96693 71.9906 9.3911 72.291 9.94783C72.6003 10.5046 72.755 11.185 72.755 11.9892ZM67.877 11.9892C67.877 12.4399 67.9211 12.8199 68.0095 13.1292C68.0979 13.4385 68.2393 13.6726 68.4337 13.8317C68.6281 13.9819 68.88 14.057 69.1893 14.057C69.5074 14.057 69.7592 13.9819 69.9448 13.8317C70.1304 13.6726 70.2674 13.4385 70.3557 13.1292C70.4441 12.8199 70.4883 12.4399 70.4883 11.9892C70.4883 11.5385 70.4441 11.1629 70.3557 10.8625C70.2674 10.562 70.126 10.3367 69.9316 10.1864C69.746 10.0362 69.4941 9.96109 69.176 9.96109C68.7253 9.96109 68.3939 10.1334 68.1818 10.4781C67.9786 10.8139 67.877 11.3176 67.877 11.9892ZM78.5205 8.23787C78.6354 8.23787 78.7635 8.24671 78.9049 8.26438C79.0463 8.27322 79.1568 8.28648 79.2363 8.30415L79.0507 10.3985C78.9712 10.3808 78.8696 10.3676 78.7459 10.3588C78.6221 10.3411 78.4852 10.3322 78.3349 10.3322C78.1228 10.3322 77.9108 10.3588 77.6987 10.4118C77.4866 10.456 77.2922 10.5399 77.1154 10.6636C76.9387 10.7785 76.7973 10.9464 76.6913 11.1673C76.5852 11.3794 76.5322 11.6578 76.5322 12.0024V15.6477H74.292V8.37043H75.9755L76.3201 9.56342H76.4129C76.5543 9.31599 76.731 9.09506 76.9431 8.90065C77.1552 8.6974 77.3938 8.53833 77.6589 8.42345C77.9329 8.29973 78.2201 8.23787 78.5205 8.23787Z" fill="#3730A3"/>
<ellipse cx="11.6054" cy="12.1718" rx="7.21821" ry="7.21821" fill="#C7D2FE"/>
<path d="M11.5348 8.33862C11.5348 8.33862 -0.0001304 27.6206 -0.000130151 20.7603C-0.000129902 13.9 5.16426 8.33862 11.5348 8.33862C17.9054 8.33862 23.0698 13.9 23.0698 20.7603C23.0698 27.6206 11.5348 8.33862 11.5348 8.33862Z" fill="#4338CA"/>
<path d="M11.5348 15.2874C11.5348 15.2874 -0.00013042 -5.9228 -0.000130694 1.62352C-0.000130968 9.16985 5.16425 15.2874 11.5348 15.2874C17.9054 15.2874 23.0698 9.16985 23.0698 1.62353C23.0698 -5.9228 11.5348 15.2874 11.5348 15.2874Z" fill="#6366F1"/>
</svg>
