<svg width="22" height="18" viewBox="0 0 22 18" fill="none" xmlns="http://www.w3.org/2000/svg">
<path d="M21.0691 0.180784L21.7774 1.16618C20.1761 1.92575 18.9033 2.79824 17.959 3.78363C17.0146 4.74849 16.5425 5.66204 16.5425 6.52425C16.5425 7.14013 17.1275 7.73547 18.2977 8.31028C19.4473 8.88509 20.2685 9.51123 20.7612 10.1887C21.2539 10.8661 21.5002 11.7078 21.5002 12.7138C21.5002 14.0687 21.0588 15.1978 20.1761 16.101C19.3139 17.0043 18.2258 17.456 16.912 17.456C15.4544 17.456 14.2637 16.8914 13.3399 15.7623C12.4366 14.6127 11.985 13.1346 11.985 11.328C11.985 9.6652 12.3443 8.10499 13.0628 6.64743C13.7813 5.16934 14.8385 3.87601 16.2345 2.76744C17.6305 1.63835 19.242 0.776126 21.0691 0.180784ZM9.27518 0.180784L9.98343 1.16618C8.38217 1.92575 7.10937 2.79824 6.16503 3.78363C5.2207 4.74849 4.74853 5.66204 4.74853 6.52425C4.74853 7.14013 5.33361 7.73547 6.50376 8.31028C7.65339 8.88509 8.47455 9.51123 8.96724 10.1887C9.45994 10.8661 9.70629 11.7078 9.70629 12.7138C9.70629 14.0687 9.26491 15.1978 8.38217 16.101C7.51995 17.0043 6.43191 17.456 5.11805 17.456C3.66049 17.456 2.46981 16.8914 1.546 15.7623C0.642722 14.6127 0.191083 13.1346 0.191083 11.328C0.191083 9.6652 0.550341 8.10499 1.26886 6.64743C1.98737 5.16934 3.04462 3.87601 4.44059 2.76744C5.83657 1.63835 7.4481 0.776126 9.27518 0.180784Z" fill="#6366F1"/>
</svg>
