<svg width="15" height="15" viewBox="0 0 15 15" fill="none" xmlns="http://www.w3.org/2000/svg">
<path d="M13.6573 0.242463L7.50078 6.39962L1.34428 0.242463C1.19621 0.106949 1.00157 0.0337953 0.800905 0.0382419C0.600241 0.0426885 0.40903 0.124393 0.267104 0.266334C0.125179 0.408274 0.0434833 0.599506 0.0390371 0.800191C0.034591 1.00088 0.107737 1.19554 0.243237 1.34363L6.39661 7.50078L0.241675 13.6564C0.16648 13.728 0.106369 13.814 0.0648763 13.9093C0.0233836 14.0045 0.00134614 14.1071 5.97664e-05 14.2109C-0.0012266 14.3148 0.0182641 14.4179 0.0573857 14.5141C0.0965073 14.6104 0.15447 14.6978 0.227868 14.7713C0.301266 14.8448 0.388616 14.9029 0.484786 14.9422C0.580955 14.9815 0.684002 15.0011 0.78787 15C0.891737 14.9988 0.994329 14.9769 1.08961 14.9356C1.1849 14.8942 1.27096 14.8342 1.34272 14.7591L7.50078 8.60351L13.6573 14.7607C13.8053 14.8962 14 14.9693 14.2007 14.9649C14.4013 14.9604 14.5925 14.8787 14.7345 14.7368C14.8764 14.5949 14.9581 14.4036 14.9625 14.2029C14.967 14.0022 14.8938 13.8076 14.7583 13.6595L8.60183 7.50234L14.7583 1.34363C14.8335 1.27196 14.8936 1.18598 14.9351 1.09074C14.9766 0.995506 14.9987 0.892935 14.9999 0.789058C15.0012 0.685182 14.9817 0.582096 14.9426 0.485861C14.9035 0.389625 14.8455 0.302183 14.7721 0.228673C14.6987 0.155164 14.6114 0.0970704 14.5152 0.0578083C14.419 0.0185461 14.316 -0.00109239 14.2121 4.68742e-05C14.1083 0.00118614 14.0057 0.0230804 13.9104 0.0644425C13.8151 0.105805 13.729 0.1658 13.6573 0.240902V0.242463Z" fill="#334155"/>
</svg>
