<svg width="51" height="51" viewBox="0 0 51 51" fill="none" xmlns="http://www.w3.org/2000/svg">
<circle cx="25.5" cy="25.5" r="25.5" fill="#CCFBF1"/>
<g clip-path="url(#clip0_93_832)">
<path d="M13.061 19.2804C13.061 18.4557 13.3887 17.6647 13.9719 17.0815C14.5551 16.4983 15.346 16.1707 16.1708 16.1707H34.8293C35.6541 16.1707 36.4451 16.4983 37.0283 17.0815C37.6114 17.6647 37.9391 18.4557 37.9391 19.2804V31.7194C37.9391 32.5442 37.6114 33.3352 37.0283 33.9184C36.4451 34.5016 35.6541 34.8292 34.8293 34.8292H16.1708C15.346 34.8292 14.5551 34.5016 13.9719 33.9184C13.3887 33.3352 13.061 32.5442 13.061 31.7194V19.2804ZM16.1708 17.7255C15.7584 17.7255 15.3629 17.8893 15.0713 18.1809C14.7797 18.4725 14.6159 18.868 14.6159 19.2804V20.8353H36.3842V19.2804C36.3842 18.868 36.2204 18.4725 35.9288 18.1809C35.6372 17.8893 35.2417 17.7255 34.8293 17.7255H16.1708ZM36.3842 23.945H14.6159V31.7194C14.6159 32.1318 14.7797 32.5273 15.0713 32.8189C15.3629 33.1105 15.7584 33.2743 16.1708 33.2743H34.8293C35.2417 33.2743 35.6372 33.1105 35.9288 32.8189C36.2204 32.5273 36.3842 32.1318 36.3842 31.7194V23.945Z" fill="#115E59"/>
<path d="M16.1709 28.6098C16.1709 28.1974 16.3347 27.8019 16.6263 27.5103C16.9179 27.2187 17.3134 27.0549 17.7258 27.0549H19.2807C19.693 27.0549 20.0885 27.2187 20.3801 27.5103C20.6717 27.8019 20.8355 28.1974 20.8355 28.6098V30.1647C20.8355 30.5771 20.6717 30.9726 20.3801 31.2642C20.0885 31.5557 19.693 31.7196 19.2807 31.7196H17.7258C17.3134 31.7196 16.9179 31.5557 16.6263 31.2642C16.3347 30.9726 16.1709 30.5771 16.1709 30.1647V28.6098Z" fill="#115E59"/>
</g>
<defs>
<clipPath id="clip0_93_832">
<rect width="24.878" height="24.878" fill="white" transform="translate(13.061 13.061)"/>
</clipPath>
</defs>
</svg>
