<svg width="51" height="51" viewBox="0 0 51 51" fill="none" xmlns="http://www.w3.org/2000/svg">
<circle cx="25.5" cy="25.5" r="25.5" fill="#818CF8"/>
<path d="M18.7961 22.8921C17.7757 23.1488 16.8843 23.7693 16.2892 24.637C15.6941 25.5047 15.4363 26.5598 15.5643 27.6041C15.6923 28.6484 16.1972 29.6101 16.9842 30.3084C17.7712 31.0067 18.7861 31.3935 19.8382 31.3963H20.917M26.311 36.7904V27.0811V36.7904ZM26.311 36.7904L23.614 34.6327L26.311 36.7904ZM26.311 36.7904L29.0081 34.6327L26.311 36.7904Z" stroke="#EEF2FF" stroke-width="2.0679" stroke-linecap="round" stroke-linejoin="round"/>
<path d="M30.4426 20.7573C30.0739 19.2972 29.1638 18.0319 27.8968 17.218C26.6298 16.404 25.1007 16.1023 23.6195 16.374C22.1382 16.6456 20.8157 17.4703 19.92 18.6809C19.0243 19.8915 18.6224 21.3974 18.7958 22.8933C18.7958 22.8933 18.9609 23.8448 19.2986 24.3842" stroke="#EEF2FF" stroke-width="2.0679" stroke-linecap="round" stroke-linejoin="round"/>
<path d="M31.7053 31.3965C32.467 31.3959 33.2199 31.2341 33.9146 30.9216C34.6092 30.6092 35.2298 30.1531 35.7354 29.5835C36.2411 29.0139 36.6204 28.3437 36.8484 27.6169C37.0764 26.8901 37.1479 26.1233 37.0581 25.367C36.9684 24.6106 36.7195 23.8818 36.3278 23.2285C35.9361 22.5753 35.4105 22.0124 34.7856 21.5769C34.1607 21.1415 33.4506 20.8433 32.7021 20.702C31.9537 20.5607 31.1838 20.5796 30.4431 20.7573L29.0083 21.1478" stroke="#EEF2FF" stroke-width="2.0679" stroke-linecap="round" stroke-linejoin="round"/>
</svg>
