<svg width="51" height="51" viewBox="0 0 51 51" fill="none" xmlns="http://www.w3.org/2000/svg">
<circle cx="25.5" cy="25.5" r="25.5" fill="#818CF8"/>
<path d="M24.5372 16.3018C24.8699 15.4241 26.1292 15.4241 26.4631 16.3018L28.6156 22.2645C28.6907 22.4588 28.823 22.6257 28.9949 22.7432C29.1668 22.8607 29.3703 22.9233 29.5786 22.9228H34.8685C35.846 22.9228 36.2724 24.1395 35.5039 24.7353L31.7395 28.1222C31.5708 28.2519 31.4476 28.4316 31.3875 28.6356C31.3273 28.8396 31.3333 29.0574 31.4046 29.2578L32.7794 35.0843C33.1142 36.0202 32.0306 36.8241 31.2112 36.248L26.098 33.0035C25.9229 32.8804 25.7141 32.8144 25.5001 32.8144C25.2861 32.8144 25.0773 32.8804 24.9022 33.0035L19.789 36.248C18.9706 36.8241 17.886 36.0192 18.2209 35.0843L19.5956 29.2578C19.6669 29.0574 19.6729 28.8396 19.6128 28.6356C19.5526 28.4316 19.4294 28.2519 19.2607 28.1222L15.4963 24.7353C14.7268 24.1395 15.1552 22.9228 16.1307 22.9228H21.4206C21.6289 22.9235 21.8325 22.8609 22.0044 22.7434C22.1764 22.6258 22.3086 22.4588 22.3835 22.2645L24.5361 16.3018H24.5372Z" stroke="#EEF2FF" stroke-width="2.07979" stroke-linecap="round" stroke-linejoin="round"/>
</svg>
