<svg width="17" height="14" viewBox="0 0 17 14" fill="none" xmlns="http://www.w3.org/2000/svg">
<path d="M13.9398 0.939973C14.2216 0.671751 14.5965 0.523467 14.9855 0.52641C15.3744 0.529353 15.7471 0.683294 16.0247 0.955749C16.3024 1.2282 16.4633 1.59786 16.4736 1.98672C16.4839 2.37558 16.3427 2.75323 16.0798 3.03997L8.09983 13.02C7.96261 13.1678 7.797 13.2864 7.61289 13.3687C7.42879 13.451 7.22997 13.4954 7.02833 13.4991C6.82669 13.5029 6.62637 13.4659 6.43934 13.3904C6.25231 13.315 6.08242 13.2026 5.93983 13.06L0.647827 7.76797C0.500453 7.63065 0.382249 7.46505 0.300265 7.28105C0.218281 7.09705 0.174197 6.89843 0.170644 6.69702C0.16709 6.49561 0.20414 6.29556 0.279582 6.10878C0.355024 5.922 0.467313 5.75233 0.609751 5.6099C0.752188 5.46746 0.921856 5.35517 1.10863 5.27973C1.29541 5.20429 1.49547 5.16724 1.69687 5.17079C1.89828 5.17434 2.0969 5.21843 2.2809 5.30041C2.4649 5.3824 2.6305 5.5006 2.76783 5.64797L6.95583 9.83397L13.9018 0.983974C13.9143 0.968575 13.9277 0.953885 13.9418 0.939973H13.9398Z" fill="#2DD4BF"/>
</svg>
