<svg width="34" height="33" viewBox="0 0 34 33" fill="none" xmlns="http://www.w3.org/2000/svg">
<path d="M16.783 0C7.75364 0 0.434082 7.31955 0.434082 16.3489C0.434082 25.3783 7.75364 32.6979 16.783 32.6979C25.8124 32.6979 33.1319 25.3783 33.1319 16.3489C33.1319 7.31955 25.8124 0 16.783 0ZM12.7809 23.1252H9.47027V12.4712H12.7809V23.1252ZM11.1052 11.1633C10.0595 11.1633 9.38342 10.4224 9.38342 9.50622C9.38342 8.57127 10.08 7.8526 11.1477 7.8526C12.2155 7.8526 12.8695 8.57127 12.8899 9.50622C12.8899 10.4224 12.2155 11.1633 11.1052 11.1633ZM24.8723 23.1252H21.5617V17.2209C21.5617 15.8465 21.0814 14.9133 19.8842 14.9133C18.9697 14.9133 18.4264 15.5451 18.1863 16.1531C18.0977 16.3694 18.0756 16.6759 18.0756 16.9808V23.1235H14.7632V15.8687C14.7632 14.5386 14.7207 13.4266 14.6764 12.4695H17.5528L17.7043 13.9494H17.7708C18.2067 13.2546 19.2745 12.2293 21.061 12.2293C23.2391 12.2293 24.8723 13.6888 24.8723 16.8258V23.1252Z" fill="#6366F1"/>
</svg>
