<svg width="51" height="51" viewBox="0 0 51 51" fill="none" xmlns="http://www.w3.org/2000/svg">
<circle cx="25.5" cy="25.5" r="25.5" fill="#CCF5FB"/>
<path d="M22.3905 26.5366C24.6804 26.5366 26.5368 24.6802 26.5368 22.3902C26.5368 20.1003 24.6804 18.2439 22.3905 18.2439C20.1005 18.2439 18.2441 20.1003 18.2441 22.3902C18.2441 24.6802 20.1005 26.5366 22.3905 26.5366Z" stroke="#0A6C7B" stroke-width="2.07317" stroke-linecap="round" stroke-linejoin="round"/>
<path d="M28.6099 26.5366C29.3027 26.5365 29.9845 26.3629 30.593 26.0315C31.2014 25.7001 31.7171 25.2215 32.0929 24.6395C32.4688 24.0574 32.6928 23.3905 32.7444 22.6996C32.7961 22.0087 32.6739 21.3158 32.3888 20.6843C32.1038 20.0528 31.665 19.5029 31.1127 19.0846C30.5603 18.6664 29.9119 18.3932 29.2268 18.2901C28.5417 18.187 27.8417 18.2572 27.1907 18.4943C26.5397 18.7314 25.9584 19.1278 25.5001 19.6474M29.6465 32.7561C29.6465 29.3208 26.3978 26.5366 22.3904 26.5366C18.3829 26.5366 15.1343 29.3208 15.1343 32.7561H29.6465Z" stroke="#0A6C7B" stroke-width="2.07317" stroke-linecap="round" stroke-linejoin="round"/>
<path d="M35.8659 32.756C35.8659 29.3208 32.6172 26.5365 28.6098 26.5365C27.7732 26.5365 26.4298 26.2328 25.5 25.2563" stroke="#0A6C7B" stroke-width="2.07317" stroke-linecap="round" stroke-linejoin="round"/>
</svg>
